<svg width="20" height="20" viewBox="0 0 20 20" fill="none" xmlns="http://www.w3.org/2000/svg">
    <path fill-rule="evenodd" clip-rule="evenodd" d="M8 0.250031C5.65279 0.250031 3.75 2.15282 3.75 4.50003C3.75 6.84724 5.65279 8.75003 8 8.75003C10.3472 8.75003 12.25 6.84724 12.25 4.50003C12.25 2.15282 10.3472 0.250031 8 0.250031ZM5.25 4.50003C5.25 2.98125 6.48122 1.75003 8 1.75003C9.51878 1.75003 10.75 2.98125 10.75 4.50003C10.75 6.01881 9.51878 7.25003 8 7.25003C6.48122 7.25003 5.25 6.01881 5.25 4.50003Z" fill="white"/>
    <path d="M1.75 14C1.75 12.7574 2.75736 11.75 4 11.75H4.34087C4.36722 11.75 4.39342 11.7542 4.41847 11.7624L5.28398 12.045C5.96351 12.2669 6.66343 12.4033 7.36804 12.4544C7.51632 12.4651 7.64645 12.3609 7.67996 12.2161C7.75553 11.8894 7.85397 11.5714 7.97351 11.264C8.02628 11.1283 7.92712 10.9783 7.78158 10.9739C7.09499 10.9532 6.41064 10.8349 5.74959 10.6191L4.88407 10.3365C4.70869 10.2792 4.52536 10.25 4.34087 10.25H4C1.92893 10.25 0.25 11.929 0.25 14V15.1883C0.25 15.9415 0.795884 16.5838 1.53927 16.7051C3.69742 17.0575 5.87718 17.2321 8.05675 17.229C8.20885 17.2288 8.30437 17.0645 8.2363 16.9285C8.08946 16.6351 7.96263 16.3299 7.8576 16.0148C7.80142 15.8462 7.64688 15.7279 7.46922 15.7254C5.56646 15.6993 3.66516 15.5324 1.78097 15.2247C1.76311 15.2218 1.75 15.2064 1.75 15.1883V14Z" fill="white"/>
    <path d="M15.25 12.3C15.25 11.8858 14.9142 11.55 14.5 11.55C14.0858 11.55 13.75 11.8858 13.75 12.3V14.0727C13.75 14.3127 13.8648 14.5381 14.0589 14.6793L15.0589 15.4065C15.3939 15.6502 15.8629 15.5761 16.1066 15.2411C16.3502 14.9061 16.2761 14.4371 15.9411 14.1934L15.25 13.6908V12.3Z" fill="white"/>
    <path fill-rule="evenodd" clip-rule="evenodd" d="M14.5 19.3C17.5376 19.3 20 16.8376 20 13.8C20 10.7624 17.5376 8.29999 14.5 8.29999C11.4624 8.29999 9 10.7624 9 13.8C9 16.8376 11.4624 19.3 14.5 19.3ZM14.5 17.8C16.7091 17.8 18.5 16.0091 18.5 13.8C18.5 11.5908 16.7091 9.79999 14.5 9.79999C12.2909 9.79999 10.5 11.5908 10.5 13.8C10.5 16.0091 12.2909 17.8 14.5 17.8Z" fill="white"/>
    </svg>
    