<svg width="18" height="19" viewBox="0 0 18 19" fill="none" xmlns="http://www.w3.org/2000/svg">
<path fill-rule="evenodd" clip-rule="evenodd" d="M10.5578 2.53426C9.68726 1.69891 8.31275 1.69891 7.44218 2.53426L2.81574 6.9736C2.70239 7.08237 2.62614 7.22405 2.5978 7.37857C2.04367 10.4004 2.00277 13.4941 2.47681 16.5295L2.58933 17.25H5.56579V11.0387C5.56579 10.6245 5.90158 10.2887 6.31579 10.2887H11.6842C12.0984 10.2887 12.4342 10.6245 12.4342 11.0387V17.25H15.4107L15.5232 16.5295C15.9972 13.4941 15.9563 10.4004 15.4022 7.37857C15.3739 7.22405 15.2976 7.08237 15.1843 6.9736L10.5578 2.53426ZM6.40363 1.45194C7.85458 0.059679 10.1454 0.059679 11.5964 1.45194L16.2228 5.89128C16.5634 6.21807 16.7925 6.64376 16.8776 7.10802C17.4621 10.2956 17.5053 13.559 17.0052 16.761L16.8245 17.9184C16.7497 18.3971 16.3374 18.75 15.8529 18.75H11.6842C11.27 18.75 10.9342 18.4142 10.9342 18V11.7887H7.06579V18C7.06579 18.4142 6.73 18.75 6.31579 18.75H2.14706C1.66258 18.75 1.25029 18.3971 1.17554 17.9184L0.994776 16.761C0.494728 13.559 0.537875 10.2956 1.12241 7.10802C1.20754 6.64376 1.43662 6.21807 1.77719 5.89128L6.40363 1.45194Z" fill="#D3D3D3"/>
</svg>
