<svg width="16" height="20" viewBox="0 0 16 20" fill="none" xmlns="http://www.w3.org/2000/svg">
    <path d="M6 6.99999C6 5.89542 6.89543 4.99999 8 4.99999C9.10457 4.99999 10 5.89542 10 6.99999C10 8.10456 9.10457 8.99999 8 8.99999C6.89543 8.99999 6 8.10456 6 6.99999Z" fill="#D3D3D3"/>
    <path d="M7 10.5C5.34315 10.5 4 11.8431 4 13.5C4 14.0523 4.44772 14.5 5 14.5H11C11.5523 14.5 12 14.0523 12 13.5C12 11.8431 10.6569 10.5 9 10.5H7Z" fill="#D3D3D3"/>
    <path fill-rule="evenodd" clip-rule="evenodd" d="M3.54353 0.882674C6.49933 0.457932 9.50068 0.457932 12.4565 0.882674C13.922 1.09326 15.0511 2.28265 15.1852 3.75711L15.3122 5.15284C15.6055 8.37761 15.6055 11.6224 15.3122 14.8471L15.1852 16.2429C15.0511 17.7173 13.922 18.9067 12.4565 19.1173C9.50068 19.5421 6.49933 19.5421 3.54353 19.1173C2.07804 18.9067 0.948944 17.7173 0.814816 16.2429L0.687849 14.8471C0.394497 11.6224 0.394496 8.37762 0.687848 5.15284L0.814816 3.75711C0.948944 2.28265 2.07804 1.09326 3.54353 0.882674ZM12.2431 2.36742C9.42884 1.96302 6.57118 1.96302 3.75688 2.36742C2.97909 2.47919 2.37983 3.11045 2.30865 3.893L2.18168 5.28873C1.89655 8.4231 1.89655 11.5769 2.18168 14.7113L2.30865 16.107C2.37984 16.8895 2.97909 17.5208 3.75688 17.6326C6.57118 18.037 9.42884 18.037 12.2431 17.6326C13.0209 17.5208 13.6202 16.8895 13.6914 16.107L13.8183 14.7113C14.1035 11.5769 14.1035 8.4231 13.8183 5.28873L13.6914 3.893C13.6202 3.11045 13.0209 2.47919 12.2431 2.36742Z" fill="#D3D3D3"/>
    </svg>
    