<svg width="23" height="16" viewBox="0 0 23 16" fill="none" xmlns="http://www.w3.org/2000/svg">
    <path fill-rule="evenodd" clip-rule="evenodd" d="M7.23967 0.875923C7.18246 0.53489 6.8995 0.277175 6.55462 0.251993C6.20974 0.22681 5.89234 0.440689 5.7862 0.769794L3.69627 7.25H1C0.585786 7.25 0.25 7.58579 0.25 8C0.25 8.41422 0.585786 8.75 1 8.75H4.24242C4.56795 8.75 4.8563 8.54002 4.95622 8.23021L6.26937 4.15857L8.10882 15.1241C8.16679 15.4697 8.45634 15.7291 8.8062 15.7488C9.15606 15.7686 9.47297 15.5434 9.56948 15.2066L11.999 6.72657L13.2789 11.206C13.3613 11.4947 13.608 11.7064 13.9059 11.7441C14.2037 11.7817 14.4954 11.6382 14.6471 11.3791L16.1874 8.75H17.3535C17.68 9.90425 18.7412 10.75 20 10.75C21.5188 10.75 22.75 9.51878 22.75 8C22.75 6.48122 21.5188 5.25 20 5.25C18.7412 5.25 17.68 6.09575 17.3535 7.25H15.7576C15.4913 7.25 15.245 7.39115 15.1105 7.62088L14.2394 9.10774L12.7211 3.79396C12.6292 3.47208 12.335 3.25012 12.0003 3.25C11.6655 3.24988 11.3712 3.47162 11.279 3.79344L9.04002 11.6084L7.23967 0.875923ZM18.75 8C18.75 7.30964 19.3096 6.75 20 6.75C20.6904 6.75 21.25 7.30964 21.25 8C21.25 8.69036 20.6904 9.25 20 9.25C19.3096 9.25 18.75 8.69036 18.75 8Z" fill="#D3D3D3"/>
    </svg>
    